<mxfile host="app.diagrams.net" modified="2024-01-23T18:23:47.217Z" agent="Mozilla/5.0 (Windows NT 10.0; Win64; x64) AppleWebKit/537.36 (KHTML, like Gecko) Chrome/120.0.0.0 Safari/537.36 Edg/120.0.0.0" version="22.1.22" etag="DqCmqWZTFq-n_S76d7BB" type="github">
  <diagram name="Seite-1" id="sEl4gFlPcDZXE3jfqt8S">
    <mxGraphModel>
      <root>
        <mxCell id="0" />
        <mxCell id="1" parent="0" />
      </root>
    </mxGraphModel>
  </diagram>
</mxfile>
